<svg version="1.1" id="Layer_1" xmlns="http://www.w3.org/2000/svg" xmlns:xlink="http://www.w3.org/1999/xlink" x="0px" y="0px"
	 width="100%" viewBox="0 0 496 496" enable-background="new 0 0 496 496" xml:space="preserve">
<path fill="#eab308" opacity="1.000000" stroke="none" 
	d="
M456.298828,239.000061 
	C456.300507,280.829834 456.230255,322.159882 456.406647,363.488922 
	C456.425659,367.935883 454.962585,370.343933 451.160950,372.529816 
	C385.886627,410.061432 320.686279,447.721680 255.496323,485.399811 
	C252.689697,487.021942 250.288254,487.626648 247.183685,485.829651 
	C181.869904,448.025513 116.524490,410.275818 51.108887,372.648285 
	C47.172672,370.384155 45.570930,367.898102 45.580051,363.241150 
	C45.726524,288.414581 45.725933,213.587524 45.572430,138.760956 
	C45.562878,134.102737 47.169315,131.628860 51.089111,129.374313 
	C116.364777,91.829773 181.572617,54.167194 246.748779,16.450077 
	C249.900925,14.625953 252.410248,14.739977 255.509857,16.533369 
	C320.107361,53.908783 384.719086,91.259995 449.447418,128.408005 
	C454.551483,131.337250 456.524414,134.495453 456.462616,140.510803 
	C456.127075,173.170990 456.300354,205.836426 456.298828,239.000061 
M444.985565,352.457916 
	C444.977814,283.136169 444.935730,213.814377 445.046112,144.492844 
	C445.052826,140.263611 443.641388,137.832413 439.977631,135.810089 
	C428.166931,129.290771 416.514496,122.483650 404.827362,115.741936 
	C355.046204,87.025688 305.260071,58.317989 255.532089,29.509909 
	C252.245651,27.606031 249.704239,27.629375 246.392090,29.547438 
	C184.699829,65.273346 122.955208,100.909042 61.152798,136.444031 
	C57.903351,138.312393 56.955166,140.524704 56.958778,144.052231 
	C57.030991,214.540466 57.083645,285.028992 56.870796,355.516663 
	C56.853233,361.331726 58.855392,364.395660 63.755917,367.205261 
	C124.594612,402.085724 185.333725,437.140106 246.031204,472.265961 
	C249.648682,474.359375 252.360016,474.369354 256.026245,472.244873 
	C316.129974,437.415863 376.263336,402.636505 436.581360,368.180878 
	C442.883850,364.580658 446.389679,360.767059 444.985565,352.457916 
z"/>
<path fill="#eab308" opacity="1.000000" stroke="none" 
	d="
M364.936493,103.024002 
	C404.711609,133.779449 429.087952,173.561508 436.295074,222.988419 
	C445.126251,283.553131 428.016541,336.579407 385.715515,380.666138 
	C356.795624,410.806885 320.856293,428.403168 279.352051,434.416870 
	C204.297256,445.291870 129.910385,408.736511 92.588417,343.114563 
	C78.464760,318.281433 70.520500,291.614258 68.561279,263.020172 
	C63.338966,186.802338 105.825027,117.160439 170.970322,84.967110 
	C200.077606,70.582954 230.974014,64.006355 263.355743,65.901154 
	C300.690125,68.085747 334.583740,80.359360 364.936493,103.024002 
M341.720917,332.779114 
	C352.557739,343.614166 363.395355,354.448456 374.231079,365.284607 
	C379.906982,370.960724 380.013977,371.053467 385.175842,364.917084 
	C417.939484,325.967743 431.998291,281.069397 426.417511,230.526199 
	C422.615173,196.089630 409.013550,165.478943 386.738373,138.842224 
	C385.186188,136.986115 383.887665,134.726624 380.994110,133.760422 
	C379.740051,134.940582 378.393829,136.147293 377.113983,137.420685 
	C340.038361,174.308884 303.025818,211.260895 265.811920,248.008987 
	C262.100128,251.674362 262.402771,253.613464 265.900055,257.075012 
	C291.115814,282.033112 316.135345,307.189484 341.720917,332.779114 
M120.177460,138.703186 
	C56.696476,214.805389 73.201576,317.544525 127.012627,369.958618 
	C166.185455,330.596161 205.355728,291.236267 244.576187,251.825943 
	C240.619553,246.875671 128.869446,135.458771 125.372208,133.136566 
	C123.816582,134.802582 122.234253,136.497192 120.177460,138.703186 
M156.623871,395.821198 
	C234.175232,447.554565 327.358185,423.948395 370.266754,379.120087 
	C331.105804,339.929657 291.962189,300.756592 253.536240,262.301727 
	C214.859177,301.079773 175.739883,340.301239 136.438644,379.705109 
	C141.882141,385.466156 148.899857,390.511047 156.623871,395.821198 
M170.233337,161.266464 
	C197.877579,188.929092 225.521805,216.591721 253.019089,244.107315 
	C255.107880,243.628601 256.005737,242.350082 257.041107,241.316772 
	C294.640717,203.791229 332.196686,166.221832 369.868988,128.769485 
	C372.896362,125.759796 372.742828,123.900108 369.649017,121.197380 
	C331.389587,87.774170 286.759521,73.138481 236.389969,77.639893 
	C198.861877,80.993690 165.827011,95.861496 137.472092,120.935997 
	C134.222519,123.809624 134.207779,125.404198 137.184799,128.311127 
	C148.146423,139.014709 158.900131,149.931198 170.233337,161.266464 
z"/>
<path fill="#eab308" opacity="1.000000" stroke="none" 
	d="
M346.414093,211.856781 
	C362.357178,211.799072 377.841980,211.778152 393.326782,211.776596 
	C394.488037,211.776474 395.684448,211.762299 396.803253,212.020370 
	C399.182556,212.569153 401.331024,213.510742 401.241547,216.518967 
	C401.153320,219.485550 399.135345,220.573120 396.607880,220.728241 
	C392.956818,220.952332 389.287750,221.009933 385.629486,220.949036 
	C382.832367,220.902466 381.409088,222.042313 380.843079,224.825958 
	C378.216858,237.741714 376.471802,250.730255 377.401093,263.943115 
	C377.600800,266.782227 378.186432,269.910339 381.114838,271.108856 
	C383.872498,272.237549 386.242157,270.244293 388.286743,268.594543 
	C390.608826,266.720856 392.686493,264.541718 394.846039,262.469940 
	C396.723419,260.668854 398.955078,259.706238 401.029419,261.628143 
	C403.324219,263.754303 402.418884,266.142273 400.504822,268.208099 
	C396.749969,272.260712 392.648254,275.887451 387.749207,278.519989 
	C379.872650,282.752502 373.730011,280.359772 371.044373,271.774994 
	C368.161774,262.560638 368.158661,253.084106 369.228363,243.598785 
	C370.043762,236.368668 371.091248,229.164734 372.055939,221.792847 
	C368.418152,220.315170 364.767029,220.931870 361.176392,221.170731 
	C357.987427,221.382874 358.342407,223.933594 358.383514,226.054367 
	C358.625671,238.556686 357.995422,250.984360 355.293610,263.236298 
	C354.033051,268.952698 352.166931,274.448547 348.925323,279.390686 
	C347.152252,282.093872 344.837616,284.207245 341.927338,285.630768 
	C339.911499,286.616791 338.023041,286.549896 336.605408,284.593567 
	C335.364105,282.880585 335.394135,280.954468 336.932281,279.595581 
	C345.535522,271.995056 346.749268,261.366943 348.433197,251.087387 
	C349.802948,242.725571 349.866272,234.201736 349.923431,225.708679 
	C349.949127,221.885010 348.376465,220.721909 344.732941,221.186295 
	C340.569000,221.717010 337.339630,224.003693 333.976257,226.154205 
	C331.480469,227.749969 328.809448,229.123215 326.628052,225.777344 
	C324.503845,222.519211 326.675110,220.578888 329.072327,218.760208 
	C334.089325,214.953964 339.642731,212.499847 346.414093,211.856781 
z"/>
<path fill="#eab308" opacity="1.000000" stroke="none" 
	d="
M168.777817,272.642334 
	C168.778503,259.033539 168.897324,245.870773 168.712646,232.712280 
	C168.651291,228.340820 169.825470,226.429825 174.625580,226.548706 
	C184.162231,226.784912 184.164749,226.536179 184.161255,236.011124 
	C184.156555,248.672363 184.144958,261.333649 184.169357,273.994812 
	C184.173767,276.280914 184.246063,278.319794 186.072311,280.387177 
	C188.585938,283.232727 186.938187,286.314178 183.072342,286.324463 
	C156.084015,286.396149 129.095291,286.391174 102.106995,286.309509 
	C98.536674,286.298706 96.898605,283.459106 99.000824,280.623077 
	C100.541573,278.544525 101.151268,276.557739 100.939682,274.216492 
	C100.538651,269.778931 102.568695,268.094269 106.821144,268.649292 
	C107.312363,268.713409 107.819565,268.654694 108.319351,268.653656 
	C117.034439,268.635101 116.322777,268.477692 116.349068,276.432648 
	C116.351189,277.074738 116.501404,277.716370 116.748726,279.666534 
	C118.636543,274.756836 117.858200,270.873596 117.841179,267.138977 
	C117.822998,263.147186 119.135422,261.465088 123.365334,261.577240 
	C134.459824,261.871429 133.158905,260.670868 133.304657,271.571198 
	C133.334259,273.785461 132.931412,276.084686 134.863007,278.177765 
	C134.863007,271.778137 135.062576,265.370209 134.795944,258.981720 
	C134.604156,254.386688 135.937469,252.370819 140.958221,252.560974 
	C151.407822,252.956696 150.147354,251.732758 150.258667,262.109863 
	C150.314041,267.272491 150.368500,272.435150 150.454712,277.597290 
	C150.458801,277.842987 150.767166,278.083618 151.801758,279.591949 
	C151.801758,275.167847 151.801407,271.966461 151.801834,268.765076 
	C151.802841,261.101837 151.936737,253.435379 151.750534,245.776703 
	C151.654968,241.845856 153.203918,240.533173 157.059372,240.604599 
	C168.641815,240.819122 167.181595,239.735641 167.261505,250.808472 
	C167.315582,258.304932 167.234253,265.802582 167.317978,273.298523 
	C167.337234,275.023773 166.858124,276.914398 168.777573,279.329620 
	C168.777573,276.657288 168.777573,274.873688 168.777817,272.642334 
z"/>
<path fill="#eab308" opacity="1.000000" stroke="none" 
	d="
M110.349609,249.289398 
	C125.536827,241.551620 140.358414,233.960403 152.498825,222.155502 
	C154.774887,219.942322 156.109329,217.910049 153.689255,214.987152 
	C157.110214,211.970428 161.158997,212.762161 164.798737,212.232544 
	C166.587967,211.972198 167.184296,213.809723 167.225449,215.393127 
	C167.302750,218.367294 167.247726,221.344910 167.247726,224.854904 
	C162.624588,223.442093 160.566635,226.715256 157.828110,228.955322 
	C143.066193,241.030441 126.263718,249.280228 108.149712,254.978867 
	C106.588799,255.469955 104.907448,255.795532 103.039764,254.717896 
	C103.799622,250.869125 107.777916,251.249802 110.349609,249.289398 
z"/>
<path fill="#eab308" opacity="1.000000" stroke="none" 
	d="
M288.063354,384.082703 
	C291.774567,386.867981 295.783508,386.928650 299.796295,387.047333 
	C301.674469,387.102844 303.711090,387.307892 303.813904,389.783173 
	C303.928772,392.548279 301.710083,392.333282 299.909302,392.334564 
	C268.937469,392.356415 237.965622,392.363159 206.993835,392.328918 
	C205.278763,392.327026 202.989838,392.769958 202.898697,389.965149 
	C202.800537,386.945068 205.240005,386.973938 207.133667,387.092194 
	C216.398849,387.670624 221.466400,382.523254 225.081665,374.771179 
	C228.906250,366.570343 230.946259,357.813843 233.669922,349.268890 
	C235.441452,343.711090 237.201691,338.134003 240.324402,333.167664 
	C247.564163,321.653625 260.339691,322.075500 266.933319,334.091156 
	C270.960876,341.430603 272.934814,349.561157 275.369904,357.506897 
	C278.240326,366.873199 280.525757,376.534241 288.063354,384.082703 
z"/>
<path fill="#eab308" opacity="1.000000" stroke="none" 
	d="
M204.326050,151.120239 
	C202.220932,145.264603 203.227737,140.274246 207.082123,135.938934 
	C208.445969,134.404892 208.946579,132.918686 208.341766,130.948502 
	C208.004944,129.851288 207.496078,128.483734 207.858902,127.544937 
	C211.429825,118.305588 215.250992,109.161804 223.257080,102.690231 
	C224.392639,101.772346 225.741135,101.237968 226.630615,99.892456 
	C233.012421,90.238647 240.630615,89.078499 249.589615,96.288116 
	C249.964798,96.590042 250.416962,96.796310 251.130920,97.226479 
	C254.180847,94.460823 257.534882,91.954453 261.918152,91.803329 
	C263.378937,91.752960 265.162659,91.742958 266.277954,92.490990 
	C274.346466,97.902527 282.765411,103.106781 286.274506,112.905869 
	C286.953125,114.800934 288.107361,115.972618 289.365540,117.258095 
	C293.089996,121.063385 295.013306,125.504738 293.682007,130.848389 
	C293.128265,133.071030 293.724854,134.603882 295.147644,136.267624 
	C298.913300,140.671051 299.953217,145.689560 297.678040,151.131653 
	C296.912018,152.963989 297.008728,154.533295 297.664917,156.386063 
	C299.489960,161.539154 299.252563,166.558746 295.687592,171.001709 
	C294.437866,172.559219 294.321198,174.274063 294.166718,176.126556 
	C293.554230,183.471802 289.721130,188.066895 282.630493,190.100693 
	C281.221954,190.504715 279.804077,190.521729 278.610352,191.766235 
	C268.419983,202.390518 261.886719,202.711166 250.950577,193.052872 
	C245.923096,197.942093 239.881668,202.417984 232.894455,199.007690 
	C225.114456,195.210464 216.795181,190.814392 211.354080,184.427155 
	C206.316757,178.513870 205.068924,169.506897 203.243668,161.536667 
	C202.479736,158.200775 206.083267,155.090485 204.326050,151.120239 
M273.677948,183.980408 
	C281.506958,188.100113 288.449249,184.768448 289.212402,176.535660 
	C287.257660,175.237366 283.422089,178.141418 282.942474,174.490311 
	C282.514526,171.232330 286.285858,172.061111 288.211426,171.188583 
	C293.440399,168.819153 295.468018,163.445770 292.875031,157.964371 
	C290.877075,158.630981 288.876648,159.420319 286.809265,159.946854 
	C285.344574,160.319870 283.584473,160.423737 283.030396,158.569855 
	C282.451294,156.632278 283.882538,155.961884 285.522705,155.669937 
	C291.081451,154.680527 294.272278,151.007736 294.376495,145.734253 
	C294.483612,140.313721 291.103271,136.905945 285.552856,135.916321 
	C284.306824,135.694138 282.807892,135.297058 282.836700,133.513641 
	C282.868011,131.575485 284.353210,131.562454 285.696960,131.616089 
	C289.759583,131.778320 290.017426,129.043610 289.493256,126.248611 
	C288.687164,121.950127 286.065277,119.096184 281.622009,118.269287 
	C275.695709,117.166405 272.357147,119.520294 269.948181,126.360649 
	C269.470215,127.717903 269.352295,129.755859 267.365875,129.456390 
	C265.024231,129.103333 265.652802,126.914505 265.731049,125.372818 
	C265.983063,120.406891 270.329742,115.688118 275.652069,114.053856 
	C277.506012,113.484596 279.718262,114.401901 281.274536,112.733200 
	C279.444519,106.554062 275.278839,104.495049 268.659973,106.537109 
	C267.013916,107.044952 265.220337,107.908127 264.488037,105.661598 
	C263.897125,103.848808 265.659210,103.235046 266.981293,102.494812 
	C268.068848,101.885895 269.709137,102.080811 270.218475,100.261154 
	C267.410614,96.076347 263.415497,95.304153 258.943329,96.957253 
	C254.501953,98.598969 252.756714,103.198006 253.984375,109.195190 
	C254.554031,109.286362 255.185883,109.440842 255.824692,109.479271 
	C257.445374,109.576767 259.526703,109.129860 259.910492,111.323410 
	C260.332733,113.736687 258.038086,113.630112 256.554810,114.090652 
	C254.066116,114.863350 253.294067,116.639908 253.297226,119.058441 
	C253.325928,141.044754 253.264938,163.031448 253.386948,185.017166 
	C253.413605,189.821014 257.442932,194.245865 262.097565,195.381454 
	C266.225067,196.388428 271.066254,194.065186 273.693512,189.764175 
	C269.611847,186.992493 266.054016,183.783249 265.702271,178.413269 
	C265.610779,177.016602 265.092896,175.117905 267.099243,174.630142 
	C269.187317,174.122498 269.491852,176.022232 269.871368,177.403488 
	C270.500031,179.691635 271.297211,181.843002 273.677948,183.980408 
M229.012802,115.088097 
	C233.468475,117.732643 236.125809,121.505905 236.291183,126.803619 
	C236.329163,128.019669 236.105804,129.229675 234.564407,129.355789 
	C233.412796,129.450012 232.718826,128.701065 232.391266,127.667793 
	C232.040024,126.559845 231.860168,125.392914 231.456726,124.306992 
	C229.861603,120.013405 225.957382,117.702454 221.161606,118.143318 
	C216.689346,118.554436 212.984238,121.981339 212.465118,126.432968 
	C212.160080,129.048874 212.249405,131.634872 216.010956,131.599136 
	C217.323822,131.586655 218.892166,131.382767 219.105682,133.254715 
	C219.344345,135.347168 217.543152,135.655563 216.159714,135.959961 
	C213.274170,136.594879 210.805405,137.763123 209.191864,140.338715 
	C205.444473,146.320511 208.404388,153.234665 215.762955,155.530334 
	C217.353470,156.026535 219.556091,156.083084 218.970581,158.359238 
	C218.363953,160.717484 216.195908,160.095535 214.356018,159.781326 
	C212.443695,159.454742 210.900970,157.769409 208.816162,158.191696 
	C206.432449,164.252914 208.941956,169.636963 214.999359,171.574570 
	C216.798508,172.150070 219.617767,171.894058 219.061035,174.761490 
	C218.589172,177.191818 216.097565,176.173599 214.386139,176.216614 
	C213.726730,176.233154 213.079559,176.044968 212.637436,176.719696 
	C213.518234,182.305176 216.494507,185.385178 221.405914,185.793762 
	C226.548996,186.221603 230.288956,183.606598 231.831787,178.491959 
	C231.975662,178.014969 232.026764,177.509720 232.174561,177.034241 
	C232.572739,175.753250 232.938675,174.233582 234.684006,174.492844 
	C236.810776,174.808746 236.367508,176.613525 236.352325,178.066360 
	C236.327026,180.488739 235.517700,182.745987 233.984924,184.508347 
	C232.271942,186.477875 230.150909,188.092499 228.322037,189.757309 
	C231.099701,194.343506 235.787155,196.424149 239.909866,195.295975 
	C244.982803,193.907761 248.519775,189.740952 248.627045,184.398819 
	C248.794159,176.077286 248.654037,167.749985 248.704880,159.425491 
	C248.721085,156.772461 247.908401,154.847763 245.033066,154.381226 
	C243.522034,154.136078 241.697311,153.972839 242.115707,151.890594 
	C242.465683,150.148834 244.219147,150.032669 245.764893,150.004318 
	C246.558334,149.989777 247.351028,149.935120 248.645355,149.875504 
	C248.645355,140.873688 248.697693,132.089752 248.610794,123.307190 
	C248.587296,120.931183 246.825363,119.886978 244.699280,119.445808 
	C243.382141,119.172501 241.825424,119.070984 242.129745,117.171509 
	C242.381805,115.598320 243.776581,115.243431 245.141129,115.050003 
	C246.226868,114.896103 247.495697,115.636787 248.349564,114.409363 
	C249.498520,103.468933 247.877045,98.359970 242.283646,96.724060 
	C237.998108,95.470673 234.121429,96.222443 231.776321,100.611130 
	C232.148376,101.060242 232.303421,101.393661 232.563400,101.537827 
	C234.461365,102.590279 238.162369,102.636787 237.209915,105.612000 
	C236.085281,109.125053 233.301117,106.180153 231.338303,105.751572 
	C226.495956,104.694260 222.010468,107.548378 220.716782,113.006958 
	C223.236725,113.594017 225.764404,114.182869 229.012802,115.088097 
z"/>
<path fill="#eab308" opacity="1.000000" stroke="none" 
	d="
M261.647461,162.948853 
	C261.927551,161.892090 262.099731,161.084488 262.016174,160.304260 
	C261.876984,159.004623 262.112091,157.927246 263.460388,157.518921 
	C264.872833,157.091171 265.690948,158.022583 266.104248,159.167313 
	C267.355927,162.634369 269.591614,164.684387 273.424957,164.831772 
	C274.764099,164.883255 275.546906,165.793045 275.432739,167.174744 
	C275.314789,168.602219 274.228180,169.020996 272.995941,169.186081 
	C271.467621,169.390793 270.052979,169.019745 268.636139,168.459793 
	C263.961151,166.612274 262.444489,167.426498 261.699951,172.126999 
	C261.442505,173.752380 262.499146,176.507675 259.621399,176.186264 
	C256.723114,175.862579 257.241028,173.106308 257.446838,170.986420 
	C257.747498,167.888657 259.043121,165.262314 261.647461,162.948853 
z"/>
<path fill="#eab308" opacity="1.000000" stroke="none" 
	d="
M267.907776,145.082153 
	C263.844757,143.217636 260.668091,140.960220 259.813934,136.588928 
	C259.570892,135.345108 259.353668,133.777817 260.956085,133.163132 
	C262.649902,132.513397 263.223633,133.906860 263.878876,135.084396 
	C267.193390,141.040649 267.186066,141.015808 272.749725,136.797592 
	C273.657867,136.109055 274.733765,135.598709 275.798584,135.171585 
	C276.940308,134.713608 278.142822,134.719925 278.826813,135.978439 
	C279.509430,137.234390 278.969971,138.369888 277.838531,138.905884 
	C274.461700,140.505630 272.840424,143.020844 273.022400,146.792191 
	C273.081024,148.007843 272.442413,149.145462 271.036865,149.228409 
	C268.203278,149.395599 269.052460,146.694794 267.907776,145.082153 
z"/>
<path fill="#eab308" opacity="1.000000" stroke="none" 
	d="
M238.017670,167.636597 
	C235.019424,166.369476 233.322266,169.336700 230.796387,169.214447 
	C229.137619,169.134171 227.120087,169.490814 226.632950,167.427704 
	C226.075638,165.067398 228.045303,164.889481 229.757462,164.654755 
	C232.897079,164.224319 234.738785,162.268738 235.757187,159.388947 
	C236.171509,158.217377 236.844147,157.192474 238.248901,157.464890 
	C239.556641,157.718506 240.382523,158.836990 239.987595,160.050400 
	C239.188309,162.506042 240.868851,163.688919 242.114594,165.193634 
	C244.003555,167.475296 244.782578,170.157761 244.504257,173.085373 
	C244.367218,174.527039 244.327194,176.321426 242.175797,176.238266 
	C240.446121,176.171402 240.122330,174.760788 240.070114,173.375778 
	C239.993790,171.351181 239.859726,169.376572 238.017670,167.636597 
z"/>
<path fill="#eab308" opacity="1.000000" stroke="none" 
	d="
M228.848785,145.131195 
	C228.642227,142.150589 227.054749,140.553299 224.950699,139.333984 
	C223.599854,138.551147 222.134079,137.637619 223.246841,135.883347 
	C224.290161,134.238525 225.918732,135.052979 227.269043,135.658386 
	C228.162491,136.058975 229.030762,136.602066 229.771851,137.241760 
	C233.841171,140.754288 235.186752,140.570999 237.653885,135.973846 
	C238.410324,134.564301 238.767242,132.295258 240.949112,133.224915 
	C243.157288,134.165787 242.369553,136.310745 241.690567,137.990494 
	C240.668961,140.517929 239.005310,142.545227 236.471725,143.758896 
	C235.153595,144.390335 233.601379,144.780869 233.379593,146.631912 
	C233.214783,148.007385 232.883728,149.442337 231.105621,149.290909 
	C228.759247,149.091110 229.011383,147.138046 228.848785,145.131195 
z"/>
</svg>